<?xml version="1.0" standalone="no"?>
<!DOCTYPE svg PUBLIC "-//W3C//DTD SVG 20010904//EN"
 "http://www.w3.org/TR/2001/REC-SVG-20010904/DTD/svg10.dtd">
<svg version="1.0" xmlns="http://www.w3.org/2000/svg"
 width="512.000000pt" height="512.000000pt" viewBox="0 0 512.000000 512.000000"
 preserveAspectRatio="xMidYMid meet">

<g transform="translate(0.000000,512.000000) scale(0.100000,-0.100000)"
fill="#000000" stroke="none">
<path d="M2420 5113 c-596 -64 -1089 -519 -1196 -1104 l-16 -88 -337 -3 -338
-3 -40 -27 c-22 -15 -51 -44 -64 -65 l-24 -38 0 -1825 0 -1825 24 -38 c13 -21
42 -50 64 -65 l41 -27 1226 0 1226 0 41 27 c62 41 88 90 88 168 0 78 -26 127
-88 168 l-41 27 -1093 3 -1093 2 0 1560 0 1560 199 0 200 0 3 -332 c3 -331 3
-333 27 -371 13 -21 42 -50 64 -65 34 -23 52 -27 107 -27 55 0 73 4 107 27 22
15 51 44 64 65 24 38 24 40 27 371 l3 332 959 0 959 0 3 -332 c3 -331 3 -333
27 -371 13 -21 42 -50 64 -65 34 -23 52 -27 107 -27 55 0 73 4 107 27 22 15
51 44 64 65 24 38 24 40 27 371 l3 332 199 0 200 0 2 -892 3 -893 24 -38 c13
-21 42 -50 64 -65 34 -22 52 -27 106 -27 79 0 128 25 169 88 l27 41 0 1025 0
1026 -24 38 c-13 21 -42 50 -64 65 l-40 27 -338 3 -337 3 -16 89 c-30 163
-101 341 -194 485 -274 427 -782 672 -1282 618z m371 -422 c182 -47 320 -128
454 -265 126 -129 210 -280 249 -445 l14 -61 -948 0 -948 0 14 61 c39 165 123
316 249 445 151 154 310 240 518 280 100 19 299 12 398 -15z"/>
<path d="M4052 1189 c-45 -13 -108 -80 -121 -126 -6 -21 -11 -88 -11 -150 l0
-111 -133 -4 c-125 -3 -136 -5 -174 -30 -63 -41 -88 -90 -88 -169 0 -54 5 -72
27 -106 15 -22 44 -51 65 -64 34 -21 52 -24 170 -27 l131 -4 4 -131 c3 -118 6
-136 27 -170 13 -21 42 -50 64 -65 34 -23 52 -27 107 -27 55 0 73 4 107 27 22
15 51 44 64 65 21 34 24 52 27 170 l4 131 131 4 c118 3 136 6 170 27 21 13 50
42 65 64 22 34 27 52 27 106 0 79 -25 128 -88 169 -38 25 -49 27 -173 30
l-132 4 -4 131 c-3 118 -6 136 -27 170 -47 76 -151 113 -239 86z"/>
</g>
</svg>
