<?xml version="1.0" ?><svg data-name="Your Icons" id="Your_Icons" viewBox="0 0 48 48" xmlns="http://www.w3.org/2000/svg"><defs><style>.cls-1{fill:#939598;}</style></defs><title/><path class="cls-1" d="M37.72,17.6A4.07,4.07,0,0,0,33.63,14H32V12a8,8,0,0,0-16,0v2H14.37a4.07,4.07,0,0,0-4.09,3.6L8,39.6A4,4,0,0,0,12.11,44H35.89A4,4,0,0,0,40,39.6ZM18,12a6,6,0,0,1,12,0v2H18ZM37.49,41.3a2.16,2.16,0,0,1-1.6.7H12.11a2.16,2.16,0,0,1-1.6-.7A1.93,1.93,0,0,1,10,40H34a1,1,0,0,0,0-2H10.2l2.07-20.19A2.07,2.07,0,0,1,14.37,16H16v2.89a1.5,1.5,0,1,0,2,0V16H30v2.89a1.5,1.5,0,1,0,2,0V16h1.63a2.07,2.07,0,0,1,2.1,1.81l2.26,22A1.89,1.89,0,0,1,37.49,41.3Z"/></svg>