<svg viewBox="0 0 395.16 345.55" xmlns="http://www.w3.org/2000/svg"><rect fill="#91cd86" height="155.51" rx="12" transform="matrix(.84348521 -.5371524 .5371524 .84348521 -56.28 130.83)" width="353.63" x="19.55" y="84.23"/><path d="m328.91 41 33.19 52.07a44.73 44.73 0 0 0 -13.7 61.76c.38.6.78 1.19 1.18 1.77l-222.89 141.95c-.36-.6-.73-1.22-1.11-1.82a44.73 44.73 0 0 0 -61.76-13.73l-33.19-52.09a44.73 44.73 0 0 0 13.7-61.76c-.38-.6-.78-1.19-1.18-1.77l222.85-141.95c.36.6.73 1.22 1.11 1.82a44.73 44.73 0 0 0 61.8 13.75z" fill="#a9ea9c"/><path d="m92.7 324a18 18 0 0 1 -15.21-8.33l-70.65-110.94a18 18 0 0 1 5.51-24.85l278-177.06a18 18 0 0 1 24.85 5.51l70.64 110.93a18 18 0 0 1 -5.51 24.85l-278 177.06a17.9 17.9 0 0 1 -9.63 2.83zm207.3-312a5.91 5.91 0 0 0 -3.19.93l-278.01 177.07a6 6 0 0 0 -1.8 8.28l70.61 110.93a6 6 0 0 0 8.28 1.79l278.04-177a6 6 0 0 0 1.84-8.28l-70.65-110.95a6 6 0 0 0 -3.76-2.62 6.15 6.15 0 0 0 -1.36-.15z" fill="#1d6855"/><path d="m34.2 197 49.41-31.47c1.62-1 .12-3.63-1.51-2.59l-49.42 31.43c-1.62 1-.12 3.63 1.51 2.59z" fill="#fff"/><path d="m90.8 160.91 24.26-15.45c1.62-1 .12-3.63-1.51-2.59l-24.27 15.45c-1.62 1-.12 3.63 1.51 2.59z" fill="#fff"/><path d="m99.05 302.77 114.68-73 16-10.22c1.62-1 .12-3.63-1.51-2.59l-114.63 73.04-16 10.22c-1.62 1-.12 3.63 1.51 2.59z" fill="#fff"/><path d="m264.16 198.25 84.56-53.85 12.06-7.68c1.62-1 .12-3.63-1.51-2.59l-84.55 53.87-12.06 7.68c-1.62 1-.12 3.63 1.51 2.59z" fill="#fff"/><path d="m207.46 164.74c-3.07-4.82-7.9-6.27-15.29-4.65-5.5 1-8 1.37-9.36-.82-1-1.61-.44-4.24 2.92-6.38a17.72 17.72 0 0 1 8-2.86l-2.16-7.26a20.63 20.63 0 0 0 -8.85 3.2l-3.72-5.86-5.85 3.72 4.14 6.51c-4.1 4.62-4.67 10.09-1.8 14.6 3.16 5 8.77 5.71 15.78 4.13 4.93-1.29 7.38-1 8.68 1 1.49 2.34.52 5-3 7.24a23.83 23.83 0 0 1 -9.78 3.35l2.25 7.4a26 26 0 0 0 9.76-3.38l3.74 5.88 5.85-3.72-.93-1.46-3.09-4.86c5.34-5.21 5.67-11.13 2.71-15.78z" fill="#34b67a"/><path d="m191.07 224.2a58.78 58.78 0 1 1 49.49-90.35 58.77 58.77 0 0 1 -49.49 90.35zm-.19-107.58a48.81 48.81 0 1 0 41.25 22.6 48.47 48.47 0 0 0 -30.58-21.42 49.22 49.22 0 0 0 -10.67-1.18z" fill="#91cd86"/><rect fill="#91cd86" height="155.51" rx="12" transform="matrix(.96547263 -.26050451 .26050451 .96547263 -46.97 59.47)" width="353.63" x="24.09" y="129.21"/><path d="m363.57 131.09 16.09 59.65a44.73 44.73 0 0 0 -31.54 54.84c.19.69.39 1.37.6 2l-255.13 68.87c-.16-.68-.33-1.38-.51-2.07a44.73 44.73 0 0 0 -54.84-31.54l-16.09-59.65a44.73 44.73 0 0 0 31.54-54.84c-.19-.69-.39-1.37-.6-2l255.13-68.87c.16.68.33 1.38.51 2.07a44.73 44.73 0 0 0 54.84 31.54z" fill="#a9ea9c"/><path d="m58.9 331.38a18.07 18.07 0 0 1 -17.37-13.32l-34.25-127a18 18 0 0 1 12.72-22.06l318.22-85.82a18 18 0 0 1 22.07 12.69l34.25 127a18 18 0 0 1 -12.69 22.07l-318.26 85.82a18 18 0 0 1 -4.69.62zm284-236.83a5.94 5.94 0 0 0 -1.55.21l-318.26 85.85a6 6 0 0 0 -4.23 7.39l34.25 127a6 6 0 0 0 7.35 4.23l318.26-85.85a6 6 0 0 0 4.28-7.38l-34.3-127a6.05 6.05 0 0 0 -5.81-4.44z" fill="#1d6855"/><path d="m66 312.2 131.26-35.41 18.37-5a1.5 1.5 0 0 0 -.8-2.89l-131.24 35.46-18.37 5a1.5 1.5 0 0 0 .8 2.89z" fill="#fff"/><path d="m254.83 261.82 96.79-26.11 13.8-3.71a1.5 1.5 0 0 0 -.8-2.89l-96.79 26.11-13.83 3.71a1.5 1.5 0 0 0 .8 2.89z" fill="#fff"/><path d="m210.67 212.91c-1.49-5.52-5.66-8.34-13.2-9-5.56-.65-8-1.07-8.68-3.58-.5-1.84.85-4.18 4.7-5.22a17.72 17.72 0 0 1 8.53-.33l.11-7.57a20.63 20.63 0 0 0 -9.4.41l-1.81-6.72-6.69 1.81 2 7.45c-5.29 3.18-7.47 8.23-6.08 13.39 1.53 5.69 6.67 8.07 13.82 8.66 5.09.24 7.34 1.25 8 3.59.72 2.68-1 4.94-5 6a23.83 23.83 0 0 1 -10.34.28l-.07 7.74a26 26 0 0 0 10.33-.31l1.82 6.73 6.69-1.81-.45-1.67-1.5-5.56c6.55-3.42 8.66-8.97 7.22-14.29z" fill="#34b67a"/><path d="m194.64 267.45a58.8 58.8 0 1 1 56.86-74.13 58.88 58.88 0 0 1 -56.86 74.13zm.08-107.61a48.79 48.79 0 1 0 47.12 36.09 48.69 48.69 0 0 0 -47.12-36.09z" fill="#91cd86"/><rect fill="#91cd86" height="155.51" rx="12" transform="matrix(.9992696 .0382134 -.0382134 .9992696 9.92 -6.91)" width="353.63" x="8.4" y="177.78"/><path d="m363.08 231.44-2.37 61.73a44.73 44.73 0 0 0 -46.42 43v2.13l-264-10.12c0-.7.1-1.41.12-2.13a44.73 44.73 0 0 0 -43-46.42l2.37-61.73a44.73 44.73 0 0 0 46.42-43c0-.71 0-1.43 0-2.13l264 10.12c0 .7-.1 1.41-.12 2.13a44.73 44.73 0 0 0 43 46.42z" fill="#a9ea9c"/><path d="m347.4 345.55h-.7l-329.39-12.64a18 18 0 0 1 -17.31-18.67l5-131.42a18 18 0 0 1 18.68-17.3l329.39 12.62a18 18 0 0 1 17.3 18.68l-5 131.42a18 18 0 0 1 -17.97 17.31zm-.24-12a6 6 0 0 0 6.23-5.77l5-131.42a6 6 0 0 0 -5.77-6.23l-329.35-12.61a6 6 0 0 0 -6.27 5.76l-5 131.42a6 6 0 0 0 5.77 6.23z" fill="#1d6855"/><g fill="#fff"><path d="m242.74 203.92 58.54 2.24c3.86.15 3.86-5.85 0-6l-58.54-2.24c-3.86-.15-3.86 5.85 0 6z"/><path d="m316.69 206.49 28.74 1.1c3.86.15 3.86-5.85 0-6l-28.74-1.1c-3.86-.15-3.86 5.85 0 6z"/><path d="m245 137.46 56.93-13.82c3.75-.91 2.16-6.7-1.6-5.79l-56.93 13.82c-3.75.91-2.16 6.7 1.6 5.79z"/><path d="m316.83 119.76 27.95-6.76c3.75-.91 2.16-6.7-1.6-5.79l-27.95 6.79c-3.75.91-2.16 6.7 1.6 5.79z"/><path d="m29 308.48 58.54 2.24c3.86.15 3.86-5.85 0-6l-58.54-2.24c-3.86-.15-3.86 5.85 0 6z"/><path d="m103 311 28.74 1.1c3.86.15 3.86-5.85 0-6l-28.74-1.1c-3.86-.15-3.86 5.85 0 6z"/></g><path d="m192.77 264.11c.22-5.71-2.93-9.65-9.93-12.52-5.12-2.28-7.33-3.4-7.23-6 .07-1.9 2.05-3.74 6-3.58a17.72 17.72 0 0 1 8.24 2.22l2.36-7.19a20.63 20.63 0 0 0 -9.1-2.41l.27-7-6.93-.27-.3 7.71c-6 1.46-9.58 5.64-9.79 11-.23 5.89 4 9.69 10.62 12.37 4.79 1.74 6.63 3.38 6.54 5.8-.11 2.77-2.42 4.42-6.58 4.26a23.83 23.83 0 0 1 -10-2.81l-2.36 7.37a26 26 0 0 0 10 2.77l-.27 7 6.93.27.07-1.73.22-5.75c7.39-1.32 11.03-6 11.24-11.51z" fill="#91cd86"/><path d="m178.85 305.08q-1 0-1.93 0a49.79 49.79 0 1 1 51.66-47.85 49.85 49.85 0 0 1 -49.73 47.85zm0-89.58a39.79 39.79 0 0 0 -1.55 79.5h1.54a39.84 39.84 0 0 0 39.74-38.27 39.79 39.79 0 0 0 -38.24-41.29z" fill="#91cd86"/></svg>